<mxfile host="Electron" agent="Mozilla/5.0 (Windows NT 10.0; Win64; x64) AppleWebKit/537.36 (KHTML, like Gecko) draw.io/28.0.4 Chrome/138.0.7204.97 Electron/37.2.1 Safari/537.36" version="28.0.4" pages="6">
  <diagram name="01 - Stakeholders" id="YU1AUlcPMeFfIlHjlYDG">
    <mxGraphModel dx="1948" dy="815" grid="1" gridSize="10" guides="1" tooltips="1" connect="1" arrows="1" fold="1" page="1" pageScale="1" pageWidth="1169" pageHeight="827" math="0" shadow="0">
      <root>
        <mxCell id="0" />
        <mxCell id="1" parent="0" />
        <mxCell id="c3lNfsH27xjzIGCQ3tyP-1" value="Niclas (Owner)" style="html=1;outlineConnect=0;whiteSpace=wrap;fillColor=#CCCCFF;shape=mxgraph.archimate3.application;appType=role;archiType=oct;" vertex="1" parent="1">
          <mxGeometry x="100" y="180" width="150" height="75" as="geometry" />
        </mxCell>
        <mxCell id="c3lNfsH27xjzIGCQ3tyP-2" value="Employer" style="html=1;outlineConnect=0;whiteSpace=wrap;fillColor=#CCCCFF;shape=mxgraph.archimate3.application;appType=role;archiType=oct;" vertex="1" parent="1">
          <mxGeometry x="100" y="330" width="150" height="75" as="geometry" />
        </mxCell>
        <mxCell id="c3lNfsH27xjzIGCQ3tyP-3" value="Github Visitors" style="html=1;outlineConnect=0;whiteSpace=wrap;fillColor=#CCCCFF;shape=mxgraph.archimate3.application;appType=role;archiType=oct;" vertex="1" parent="1">
          <mxGeometry x="100" y="480" width="150" height="75" as="geometry" />
        </mxCell>
        <mxCell id="c3lNfsH27xjzIGCQ3tyP-4" value="Professional Branding" style="html=1;outlineConnect=0;whiteSpace=wrap;fillColor=#CCCCFF;shape=mxgraph.archimate3.application;appType=driver;archiType=oct;" vertex="1" parent="1">
          <mxGeometry x="440" y="180" width="150" height="75" as="geometry" />
        </mxCell>
        <mxCell id="c3lNfsH27xjzIGCQ3tyP-6" value="Talent Discovery" style="html=1;outlineConnect=0;whiteSpace=wrap;fillColor=#CCCCFF;shape=mxgraph.archimate3.application;appType=driver;archiType=oct;" vertex="1" parent="1">
          <mxGeometry x="440" y="330" width="150" height="75" as="geometry" />
        </mxCell>
        <mxCell id="c3lNfsH27xjzIGCQ3tyP-7" value="Inspiration" style="html=1;outlineConnect=0;whiteSpace=wrap;fillColor=#CCCCFF;shape=mxgraph.archimate3.application;appType=driver;archiType=oct;" vertex="1" parent="1">
          <mxGeometry x="440" y="480" width="150" height="75" as="geometry" />
        </mxCell>
        <UserObject label="Showcase Skills" link="data:page/id,orE7X2zU8LMmbxcjL87a" id="c3lNfsH27xjzIGCQ3tyP-8">
          <mxCell style="html=1;outlineConnect=0;whiteSpace=wrap;fillColor=#CCCCFF;shape=mxgraph.archimate3.application;appType=goal;archiType=oct;" vertex="1" parent="1">
            <mxGeometry x="780" y="180" width="150" height="75" as="geometry" />
          </mxCell>
        </UserObject>
        <UserObject label="Easy Contact" link="data:page/id,orE7X2zU8LMmbxcjL87a" id="c3lNfsH27xjzIGCQ3tyP-9">
          <mxCell style="html=1;outlineConnect=0;whiteSpace=wrap;fillColor=#CCCCFF;shape=mxgraph.archimate3.application;appType=goal;archiType=oct;" vertex="1" parent="1">
            <mxGeometry x="780" y="330" width="150" height="75" as="geometry" />
          </mxCell>
        </UserObject>
        <UserObject label="Share Codebase" link="data:page/id,orE7X2zU8LMmbxcjL87a" id="c3lNfsH27xjzIGCQ3tyP-10">
          <mxCell style="html=1;outlineConnect=0;whiteSpace=wrap;fillColor=#CCCCFF;shape=mxgraph.archimate3.application;appType=goal;archiType=oct;" vertex="1" parent="1">
            <mxGeometry x="780" y="480" width="150" height="75" as="geometry" />
          </mxCell>
        </UserObject>
        <mxCell id="c3lNfsH27xjzIGCQ3tyP-11" value="+/-" style="edgeStyle=elbowEdgeStyle;html=1;endArrow=open;elbow=vertical;endFill=0;dashed=1;dashPattern=6 4;rounded=0;exitX=1;exitY=0.5;exitDx=0;exitDy=0;exitPerimeter=0;entryX=0;entryY=0.5;entryDx=0;entryDy=0;entryPerimeter=0;" edge="1" parent="1">
          <mxGeometry x="0.8947" y="7" relative="1" as="geometry">
            <mxPoint x="250" y="217.5" as="sourcePoint" />
            <mxPoint x="440.0000000000002" y="217.5" as="targetPoint" />
            <mxPoint as="offset" />
          </mxGeometry>
        </mxCell>
        <mxCell id="c3lNfsH27xjzIGCQ3tyP-13" value="+/-" style="edgeStyle=elbowEdgeStyle;html=1;endArrow=open;elbow=vertical;endFill=0;dashed=1;dashPattern=6 4;rounded=0;exitX=1;exitY=0.5;exitDx=0;exitDy=0;exitPerimeter=0;entryX=0;entryY=0.5;entryDx=0;entryDy=0;entryPerimeter=0;" edge="1" parent="1" source="c3lNfsH27xjzIGCQ3tyP-2" target="c3lNfsH27xjzIGCQ3tyP-6">
          <mxGeometry x="0.8947" y="7" relative="1" as="geometry">
            <mxPoint x="330" y="280" as="sourcePoint" />
            <mxPoint x="520.0000000000002" y="280" as="targetPoint" />
            <mxPoint as="offset" />
          </mxGeometry>
        </mxCell>
        <mxCell id="c3lNfsH27xjzIGCQ3tyP-14" value="+/-" style="edgeStyle=elbowEdgeStyle;html=1;endArrow=open;elbow=vertical;endFill=0;dashed=1;dashPattern=6 4;rounded=0;exitX=1;exitY=0.5;exitDx=0;exitDy=0;exitPerimeter=0;entryX=0;entryY=0.5;entryDx=0;entryDy=0;entryPerimeter=0;" edge="1" parent="1" source="c3lNfsH27xjzIGCQ3tyP-3" target="c3lNfsH27xjzIGCQ3tyP-7">
          <mxGeometry x="0.8947" y="7" relative="1" as="geometry">
            <mxPoint x="270" y="460" as="sourcePoint" />
            <mxPoint x="460.0000000000002" y="460" as="targetPoint" />
            <mxPoint as="offset" />
          </mxGeometry>
        </mxCell>
        <mxCell id="c3lNfsH27xjzIGCQ3tyP-15" value="+/-" style="edgeStyle=elbowEdgeStyle;html=1;endArrow=open;elbow=vertical;endFill=0;dashed=1;dashPattern=6 4;rounded=0;exitX=1;exitY=0.5;exitDx=0;exitDy=0;exitPerimeter=0;" edge="1" parent="1" source="c3lNfsH27xjzIGCQ3tyP-7" target="c3lNfsH27xjzIGCQ3tyP-10">
          <mxGeometry x="0.8947" y="7" relative="1" as="geometry">
            <mxPoint x="620" y="560.17" as="sourcePoint" />
            <mxPoint x="810.0000000000002" y="560.17" as="targetPoint" />
            <mxPoint as="offset" />
          </mxGeometry>
        </mxCell>
        <mxCell id="c3lNfsH27xjzIGCQ3tyP-16" value="+/-" style="edgeStyle=elbowEdgeStyle;html=1;endArrow=open;elbow=vertical;endFill=0;dashed=1;dashPattern=6 4;rounded=0;exitX=1;exitY=0.5;exitDx=0;exitDy=0;exitPerimeter=0;entryX=0;entryY=0.5;entryDx=0;entryDy=0;entryPerimeter=0;" edge="1" parent="1" source="c3lNfsH27xjzIGCQ3tyP-6" target="c3lNfsH27xjzIGCQ3tyP-9">
          <mxGeometry x="0.8947" y="7" relative="1" as="geometry">
            <mxPoint x="710" y="420" as="sourcePoint" />
            <mxPoint x="900.0000000000002" y="420" as="targetPoint" />
            <mxPoint as="offset" />
          </mxGeometry>
        </mxCell>
        <mxCell id="c3lNfsH27xjzIGCQ3tyP-17" value="+/-" style="edgeStyle=elbowEdgeStyle;html=1;endArrow=open;elbow=vertical;endFill=0;dashed=1;dashPattern=6 4;rounded=0;exitX=1;exitY=0.5;exitDx=0;exitDy=0;exitPerimeter=0;entryX=0;entryY=0.5;entryDx=0;entryDy=0;entryPerimeter=0;" edge="1" parent="1" source="c3lNfsH27xjzIGCQ3tyP-4" target="c3lNfsH27xjzIGCQ3tyP-8">
          <mxGeometry x="0.8947" y="7" relative="1" as="geometry">
            <mxPoint x="650" y="280" as="sourcePoint" />
            <mxPoint x="840.0000000000002" y="280" as="targetPoint" />
            <mxPoint as="offset" />
          </mxGeometry>
        </mxCell>
      </root>
    </mxGraphModel>
  </diagram>
  <diagram id="orE7X2zU8LMmbxcjL87a" name="02 - Capabilities">
    <mxGraphModel dx="2824" dy="1182" grid="1" gridSize="10" guides="1" tooltips="1" connect="1" arrows="1" fold="1" page="1" pageScale="1" pageWidth="1169" pageHeight="827" math="0" shadow="0">
      <root>
        <mxCell id="0" />
        <mxCell id="1" parent="0" />
        <mxCell id="P26ImeXSWM-H-FpdXlQm-2" value="" style="rounded=0;whiteSpace=wrap;html=1;" vertex="1" parent="1">
          <mxGeometry x="580" y="302.5" width="460" height="210" as="geometry" />
        </mxCell>
        <mxCell id="P26ImeXSWM-H-FpdXlQm-1" value="Personal Branding" style="html=1;outlineConnect=0;whiteSpace=wrap;fillColor=#F5DEAA;shape=mxgraph.archimate3.application;appType=capability;archiType=rounded;" vertex="1" parent="1">
          <mxGeometry x="650" y="372.5" width="150" height="75" as="geometry" />
        </mxCell>
        <mxCell id="P26ImeXSWM-H-FpdXlQm-3" value="Professional Profile" style="html=1;outlineConnect=0;whiteSpace=wrap;fillColor=#F5DEAA;shape=mxgraph.archimate3.application;appType=capability;archiType=rounded;" vertex="1" parent="1">
          <mxGeometry x="845" y="372.5" width="150" height="75" as="geometry" />
        </mxCell>
        <mxCell id="P26ImeXSWM-H-FpdXlQm-4" value="Branding &amp;amp; Identity" style="text;html=1;align=center;verticalAlign=middle;whiteSpace=wrap;rounded=0;strokeColor=default;" vertex="1" parent="1">
          <mxGeometry x="580" y="302.5" width="460" height="30" as="geometry" />
        </mxCell>
        <mxCell id="P26ImeXSWM-H-FpdXlQm-6" value="" style="rounded=0;whiteSpace=wrap;html=1;" vertex="1" parent="1">
          <mxGeometry x="475" y="20" width="670" height="210" as="geometry" />
        </mxCell>
        <mxCell id="P26ImeXSWM-H-FpdXlQm-7" value="Project Showcase" style="text;html=1;align=center;verticalAlign=middle;whiteSpace=wrap;rounded=0;strokeColor=default;" vertex="1" parent="1">
          <mxGeometry x="475" y="20" width="670" height="30" as="geometry" />
        </mxCell>
        <mxCell id="P26ImeXSWM-H-FpdXlQm-8" value="Prject Display" style="html=1;outlineConnect=0;whiteSpace=wrap;fillColor=#F5DEAA;shape=mxgraph.archimate3.application;appType=capability;archiType=rounded;" vertex="1" parent="1">
          <mxGeometry x="535" y="90" width="150" height="75" as="geometry" />
        </mxCell>
        <mxCell id="P26ImeXSWM-H-FpdXlQm-9" value="Technology Stack View" style="html=1;outlineConnect=0;whiteSpace=wrap;fillColor=#F5DEAA;shape=mxgraph.archimate3.application;appType=capability;archiType=rounded;" vertex="1" parent="1">
          <mxGeometry x="740" y="87.5" width="150" height="75" as="geometry" />
        </mxCell>
        <mxCell id="P26ImeXSWM-H-FpdXlQm-10" value="Github Integration" style="html=1;outlineConnect=0;whiteSpace=wrap;fillColor=#F5DEAA;shape=mxgraph.archimate3.application;appType=capability;archiType=rounded;" vertex="1" parent="1">
          <mxGeometry x="945" y="87.5" width="150" height="75" as="geometry" />
        </mxCell>
        <mxCell id="P26ImeXSWM-H-FpdXlQm-11" value="" style="rounded=0;whiteSpace=wrap;html=1;" vertex="1" parent="1">
          <mxGeometry x="580" y="830" width="460" height="210" as="geometry" />
        </mxCell>
        <mxCell id="P26ImeXSWM-H-FpdXlQm-12" value="Communication" style="text;html=1;align=center;verticalAlign=middle;whiteSpace=wrap;rounded=0;strokeColor=default;" vertex="1" parent="1">
          <mxGeometry x="580" y="830" width="460" height="30" as="geometry" />
        </mxCell>
        <mxCell id="P26ImeXSWM-H-FpdXlQm-13" value="Contact Form" style="html=1;outlineConnect=0;whiteSpace=wrap;fillColor=#F5DEAA;shape=mxgraph.archimate3.application;appType=capability;archiType=rounded;" vertex="1" parent="1">
          <mxGeometry x="650" y="904" width="150" height="75" as="geometry" />
        </mxCell>
        <mxCell id="P26ImeXSWM-H-FpdXlQm-14" value="Social Links" style="html=1;outlineConnect=0;whiteSpace=wrap;fillColor=#F5DEAA;shape=mxgraph.archimate3.application;appType=capability;archiType=rounded;" vertex="1" parent="1">
          <mxGeometry x="845" y="904" width="150" height="75" as="geometry" />
        </mxCell>
        <mxCell id="P26ImeXSWM-H-FpdXlQm-15" value="" style="rounded=0;whiteSpace=wrap;html=1;" vertex="1" parent="1">
          <mxGeometry x="580" y="570" width="460" height="210" as="geometry" />
        </mxCell>
        <mxCell id="P26ImeXSWM-H-FpdXlQm-16" value="Infrastructure &amp;amp; DevOps" style="text;html=1;align=center;verticalAlign=middle;whiteSpace=wrap;rounded=0;strokeColor=default;" vertex="1" parent="1">
          <mxGeometry x="580" y="570" width="460" height="30" as="geometry" />
        </mxCell>
        <mxCell id="P26ImeXSWM-H-FpdXlQm-17" value="CI/CD Automation" style="html=1;outlineConnect=0;whiteSpace=wrap;fillColor=#F5DEAA;shape=mxgraph.archimate3.application;appType=capability;archiType=rounded;" vertex="1" parent="1">
          <mxGeometry x="650" y="644" width="150" height="75" as="geometry" />
        </mxCell>
        <mxCell id="P26ImeXSWM-H-FpdXlQm-18" value="Dockerized Deployment" style="html=1;outlineConnect=0;whiteSpace=wrap;fillColor=#F5DEAA;shape=mxgraph.archimate3.application;appType=capability;archiType=rounded;" vertex="1" parent="1">
          <mxGeometry x="845" y="644" width="150" height="75" as="geometry" />
        </mxCell>
        <UserObject label="&lt;div&gt;Goal&lt;/div&gt;&lt;div&gt;&lt;br&gt;&lt;/div&gt;Showcase Skills" link="data:page/id,YU1AUlcPMeFfIlHjlYDG" id="ikwzglEbdK4VuGniE7AP-1">
          <mxCell style="html=1;outlineConnect=0;whiteSpace=wrap;fillColor=#CCCCFF;shape=mxgraph.archimate3.application;appType=goal;archiType=oct;" vertex="1" parent="1">
            <mxGeometry x="90" y="230" width="150" height="75" as="geometry" />
          </mxCell>
        </UserObject>
        <UserObject label="&lt;div&gt;Goal&lt;/div&gt;&lt;div&gt;&lt;br&gt;&lt;/div&gt;Easy Contact" link="data:page/id,YU1AUlcPMeFfIlHjlYDG" id="ikwzglEbdK4VuGniE7AP-2">
          <mxCell style="html=1;outlineConnect=0;whiteSpace=wrap;fillColor=#CCCCFF;shape=mxgraph.archimate3.application;appType=goal;archiType=oct;" vertex="1" parent="1">
            <mxGeometry x="90" y="525" width="150" height="75" as="geometry" />
          </mxCell>
        </UserObject>
        <UserObject label="&lt;div&gt;Goal&lt;/div&gt;&lt;div&gt;&lt;br&gt;&lt;/div&gt;Share Codebase" link="data:page/id,YU1AUlcPMeFfIlHjlYDG" id="ikwzglEbdK4VuGniE7AP-3">
          <mxCell style="html=1;outlineConnect=0;whiteSpace=wrap;fillColor=#CCCCFF;shape=mxgraph.archimate3.application;appType=goal;archiType=oct;" vertex="1" parent="1">
            <mxGeometry x="90" y="370" width="150" height="75" as="geometry" />
          </mxCell>
        </UserObject>
        <mxCell id="ikwzglEbdK4VuGniE7AP-5" value="" style="edgeStyle=elbowEdgeStyle;html=1;endArrow=block;elbow=vertical;endFill=0;dashed=1;rounded=0;exitX=1;exitY=0.5;exitDx=0;exitDy=0;exitPerimeter=0;entryX=0;entryY=0.5;entryDx=0;entryDy=0;" edge="1" parent="1" source="ikwzglEbdK4VuGniE7AP-1" target="P26ImeXSWM-H-FpdXlQm-6">
          <mxGeometry width="160" relative="1" as="geometry">
            <mxPoint x="240" y="170" as="sourcePoint" />
            <mxPoint x="400" y="170" as="targetPoint" />
          </mxGeometry>
        </mxCell>
        <mxCell id="ikwzglEbdK4VuGniE7AP-6" value="Realizes" style="edgeLabel;html=1;align=center;verticalAlign=middle;resizable=0;points=[];" vertex="1" connectable="0" parent="ikwzglEbdK4VuGniE7AP-5">
          <mxGeometry x="-0.0702" y="-1" relative="1" as="geometry">
            <mxPoint y="-11" as="offset" />
          </mxGeometry>
        </mxCell>
        <mxCell id="ikwzglEbdK4VuGniE7AP-7" value="" style="edgeStyle=elbowEdgeStyle;html=1;endArrow=block;endFill=0;dashed=1;rounded=0;entryX=0;entryY=0.5;entryDx=0;entryDy=0;" edge="1" parent="1" target="P26ImeXSWM-H-FpdXlQm-2">
          <mxGeometry width="160" relative="1" as="geometry">
            <mxPoint x="240" y="270" as="sourcePoint" />
            <mxPoint x="550" y="410" as="targetPoint" />
            <Array as="points">
              <mxPoint x="360" y="330" />
            </Array>
          </mxGeometry>
        </mxCell>
        <mxCell id="ikwzglEbdK4VuGniE7AP-10" value="Realizes" style="edgeLabel;html=1;align=center;verticalAlign=middle;resizable=0;points=[];" vertex="1" connectable="0" parent="ikwzglEbdK4VuGniE7AP-7">
          <mxGeometry x="-0.1842" y="2" relative="1" as="geometry">
            <mxPoint as="offset" />
          </mxGeometry>
        </mxCell>
        <mxCell id="ikwzglEbdK4VuGniE7AP-11" value="" style="edgeStyle=elbowEdgeStyle;html=1;endArrow=block;endFill=0;dashed=1;rounded=0;exitX=1;exitY=0.5;exitDx=0;exitDy=0;exitPerimeter=0;entryX=0;entryY=0.5;entryDx=0;entryDy=0;" edge="1" parent="1" source="ikwzglEbdK4VuGniE7AP-3" target="P26ImeXSWM-H-FpdXlQm-15">
          <mxGeometry width="160" relative="1" as="geometry">
            <mxPoint x="320" y="490" as="sourcePoint" />
            <mxPoint x="480" y="490" as="targetPoint" />
            <Array as="points">
              <mxPoint x="340" y="540" />
            </Array>
          </mxGeometry>
        </mxCell>
        <mxCell id="ikwzglEbdK4VuGniE7AP-12" value="Realizes" style="edgeLabel;html=1;align=center;verticalAlign=middle;resizable=0;points=[];" vertex="1" connectable="0" parent="ikwzglEbdK4VuGniE7AP-11">
          <mxGeometry x="-0.1852" y="2" relative="1" as="geometry">
            <mxPoint y="-15" as="offset" />
          </mxGeometry>
        </mxCell>
        <mxCell id="ikwzglEbdK4VuGniE7AP-13" value="" style="edgeStyle=elbowEdgeStyle;html=1;endArrow=block;endFill=0;dashed=1;rounded=0;exitX=1;exitY=0.5;exitDx=0;exitDy=0;exitPerimeter=0;entryX=0.004;entryY=0.548;entryDx=0;entryDy=0;entryPerimeter=0;" edge="1" parent="1" source="ikwzglEbdK4VuGniE7AP-2" target="P26ImeXSWM-H-FpdXlQm-11">
          <mxGeometry width="160" relative="1" as="geometry">
            <mxPoint x="310" y="720" as="sourcePoint" />
            <mxPoint x="470" y="720" as="targetPoint" />
            <Array as="points">
              <mxPoint x="320" y="760" />
            </Array>
          </mxGeometry>
        </mxCell>
        <mxCell id="ikwzglEbdK4VuGniE7AP-14" value="Realizes" style="edgeLabel;html=1;align=center;verticalAlign=middle;resizable=0;points=[];" vertex="1" connectable="0" parent="ikwzglEbdK4VuGniE7AP-13">
          <mxGeometry x="-0.198" y="-1" relative="1" as="geometry">
            <mxPoint y="-9" as="offset" />
          </mxGeometry>
        </mxCell>
      </root>
    </mxGraphModel>
  </diagram>
  <diagram id="KEsmK9k9d0yRTfbS1kaG" name="03 - Use Case Diagram">
    <mxGraphModel dx="1948" dy="815" grid="1" gridSize="10" guides="1" tooltips="1" connect="1" arrows="1" fold="1" page="1" pageScale="1" pageWidth="1169" pageHeight="827" math="0" shadow="0">
      <root>
        <mxCell id="0" />
        <mxCell id="1" parent="0" />
        <mxCell id="hrtrKY6WEZLU9he7uUgB-1" value="runvia.dev" style="swimlane;whiteSpace=wrap;html=1;" vertex="1" parent="1">
          <mxGeometry x="430" y="50" width="370" height="700" as="geometry" />
        </mxCell>
        <mxCell id="hrtrKY6WEZLU9he7uUgB-4" value="Browse Projects" style="ellipse;whiteSpace=wrap;html=1;" vertex="1" parent="hrtrKY6WEZLU9he7uUgB-1">
          <mxGeometry x="115" y="50" width="140" height="70" as="geometry" />
        </mxCell>
        <mxCell id="hrtrKY6WEZLU9he7uUgB-5" value="View Project Details" style="ellipse;whiteSpace=wrap;html=1;" vertex="1" parent="hrtrKY6WEZLU9he7uUgB-1">
          <mxGeometry x="115" y="150" width="140" height="70" as="geometry" />
        </mxCell>
        <mxCell id="hrtrKY6WEZLU9he7uUgB-7" value="Read About Me" style="ellipse;whiteSpace=wrap;html=1;" vertex="1" parent="hrtrKY6WEZLU9he7uUgB-1">
          <mxGeometry x="115" y="420" width="140" height="70" as="geometry" />
        </mxCell>
        <mxCell id="hrtrKY6WEZLU9he7uUgB-8" value="Download CV" style="ellipse;whiteSpace=wrap;html=1;" vertex="1" parent="hrtrKY6WEZLU9he7uUgB-1">
          <mxGeometry x="115" y="240" width="140" height="70" as="geometry" />
        </mxCell>
        <mxCell id="hrtrKY6WEZLU9he7uUgB-9" value="Send Contact Message" style="ellipse;whiteSpace=wrap;html=1;" vertex="1" parent="hrtrKY6WEZLU9he7uUgB-1">
          <mxGeometry x="115" y="329" width="140" height="70" as="geometry" />
        </mxCell>
        <mxCell id="hrtrKY6WEZLU9he7uUgB-6" value="Access Github Link" style="ellipse;whiteSpace=wrap;html=1;" vertex="1" parent="hrtrKY6WEZLU9he7uUgB-1">
          <mxGeometry x="115" y="600" width="140" height="70" as="geometry" />
        </mxCell>
        <mxCell id="hrtrKY6WEZLU9he7uUgB-10" value="Visit Social Profiles" style="ellipse;whiteSpace=wrap;html=1;" vertex="1" parent="hrtrKY6WEZLU9he7uUgB-1">
          <mxGeometry x="115" y="510" width="140" height="70" as="geometry" />
        </mxCell>
        <mxCell id="hrtrKY6WEZLU9he7uUgB-2" value="Recruiter" style="shape=umlActor;verticalLabelPosition=bottom;verticalAlign=top;html=1;" vertex="1" parent="1">
          <mxGeometry x="250" y="384" width="30" height="60" as="geometry" />
        </mxCell>
        <mxCell id="hrtrKY6WEZLU9he7uUgB-3" value="Github Visitor" style="shape=umlActor;verticalLabelPosition=bottom;verticalAlign=top;html=1;" vertex="1" parent="1">
          <mxGeometry x="950" y="384" width="30" height="60" as="geometry" />
        </mxCell>
        <mxCell id="hrtrKY6WEZLU9he7uUgB-12" value="" style="endArrow=none;html=1;edgeStyle=orthogonalEdgeStyle;rounded=0;entryX=0;entryY=0.5;entryDx=0;entryDy=0;" edge="1" parent="1" source="hrtrKY6WEZLU9he7uUgB-2" target="hrtrKY6WEZLU9he7uUgB-4">
          <mxGeometry relative="1" as="geometry">
            <mxPoint x="320" y="380" as="sourcePoint" />
            <mxPoint x="480" y="380" as="targetPoint" />
          </mxGeometry>
        </mxCell>
        <mxCell id="hrtrKY6WEZLU9he7uUgB-30" value="" style="endArrow=none;html=1;edgeStyle=orthogonalEdgeStyle;rounded=0;entryX=0;entryY=0.5;entryDx=0;entryDy=0;" edge="1" parent="1" source="hrtrKY6WEZLU9he7uUgB-2" target="hrtrKY6WEZLU9he7uUgB-5">
          <mxGeometry relative="1" as="geometry">
            <mxPoint x="360" y="550" as="sourcePoint" />
            <mxPoint x="520" y="550" as="targetPoint" />
          </mxGeometry>
        </mxCell>
        <mxCell id="hrtrKY6WEZLU9he7uUgB-33" value="" style="endArrow=none;html=1;edgeStyle=orthogonalEdgeStyle;rounded=0;entryX=0;entryY=0.5;entryDx=0;entryDy=0;" edge="1" parent="1" source="hrtrKY6WEZLU9he7uUgB-2" target="hrtrKY6WEZLU9he7uUgB-8">
          <mxGeometry relative="1" as="geometry">
            <mxPoint x="370" y="550" as="sourcePoint" />
            <mxPoint x="530" y="550" as="targetPoint" />
          </mxGeometry>
        </mxCell>
        <mxCell id="hrtrKY6WEZLU9he7uUgB-36" value="" style="endArrow=none;html=1;edgeStyle=orthogonalEdgeStyle;rounded=0;entryX=0;entryY=0.5;entryDx=0;entryDy=0;" edge="1" parent="1" source="hrtrKY6WEZLU9he7uUgB-2" target="hrtrKY6WEZLU9he7uUgB-9">
          <mxGeometry relative="1" as="geometry">
            <mxPoint x="340" y="570" as="sourcePoint" />
            <mxPoint x="500" y="570" as="targetPoint" />
          </mxGeometry>
        </mxCell>
        <mxCell id="hrtrKY6WEZLU9he7uUgB-39" value="" style="endArrow=none;html=1;edgeStyle=orthogonalEdgeStyle;rounded=0;entryX=0;entryY=0.5;entryDx=0;entryDy=0;" edge="1" parent="1" source="hrtrKY6WEZLU9he7uUgB-2" target="hrtrKY6WEZLU9he7uUgB-7">
          <mxGeometry relative="1" as="geometry">
            <mxPoint x="350" y="550" as="sourcePoint" />
            <mxPoint x="510" y="550" as="targetPoint" />
          </mxGeometry>
        </mxCell>
        <mxCell id="hrtrKY6WEZLU9he7uUgB-42" value="" style="endArrow=none;html=1;edgeStyle=orthogonalEdgeStyle;rounded=0;entryX=1;entryY=0.5;entryDx=0;entryDy=0;" edge="1" parent="1" source="hrtrKY6WEZLU9he7uUgB-3" target="hrtrKY6WEZLU9he7uUgB-4">
          <mxGeometry relative="1" as="geometry">
            <mxPoint x="850" y="580" as="sourcePoint" />
            <mxPoint x="1010" y="580" as="targetPoint" />
          </mxGeometry>
        </mxCell>
        <mxCell id="hrtrKY6WEZLU9he7uUgB-45" value="" style="endArrow=none;html=1;edgeStyle=orthogonalEdgeStyle;rounded=0;entryX=1;entryY=0.5;entryDx=0;entryDy=0;" edge="1" parent="1" source="hrtrKY6WEZLU9he7uUgB-3" target="hrtrKY6WEZLU9he7uUgB-10">
          <mxGeometry relative="1" as="geometry">
            <mxPoint x="820" y="580" as="sourcePoint" />
            <mxPoint x="980" y="580" as="targetPoint" />
          </mxGeometry>
        </mxCell>
        <mxCell id="hrtrKY6WEZLU9he7uUgB-48" value="" style="endArrow=none;html=1;edgeStyle=orthogonalEdgeStyle;rounded=0;entryX=1;entryY=0.5;entryDx=0;entryDy=0;" edge="1" parent="1" source="hrtrKY6WEZLU9he7uUgB-3" target="hrtrKY6WEZLU9he7uUgB-6">
          <mxGeometry relative="1" as="geometry">
            <mxPoint x="920" y="630" as="sourcePoint" />
            <mxPoint x="1080" y="630" as="targetPoint" />
          </mxGeometry>
        </mxCell>
      </root>
    </mxGraphModel>
  </diagram>
  <diagram id="RyolajlaPDjGOASZjFLE" name="04 - App &amp; Data Architecture">
    <mxGraphModel dx="2353" dy="985" grid="1" gridSize="10" guides="1" tooltips="1" connect="1" arrows="1" fold="1" page="1" pageScale="1" pageWidth="1169" pageHeight="827" math="0" shadow="0">
      <root>
        <mxCell id="0" />
        <mxCell id="1" parent="0" />
        <mxCell id="gvjPd4QQf7CFdnUI1ZTZ-5" value="Traefik Proxy" style="html=1;outlineConnect=0;whiteSpace=wrap;fillColor=#AFFFAF;shape=mxgraph.archimate3.application;appType=sysSw;archiType=square;" vertex="1" parent="1">
          <mxGeometry x="485" y="180" width="150" height="75" as="geometry" />
        </mxCell>
        <mxCell id="gvjPd4QQf7CFdnUI1ZTZ-8" value="Project Metadata" style="html=1;outlineConnect=0;whiteSpace=wrap;fillColor=#99ffff;shape=mxgraph.archimate3.application;appType=passive;archiType=square;" vertex="1" parent="1">
          <mxGeometry x="290" y="590" width="150" height="75" as="geometry" />
        </mxCell>
        <mxCell id="gvjPd4QQf7CFdnUI1ZTZ-9" value="CV Document" style="html=1;outlineConnect=0;whiteSpace=wrap;fillColor=#99ffff;shape=mxgraph.archimate3.application;appType=passive;archiType=square;" vertex="1" parent="1">
          <mxGeometry x="480" y="590" width="150" height="75" as="geometry" />
        </mxCell>
        <mxCell id="gvjPd4QQf7CFdnUI1ZTZ-10" value="Contact Messages" style="html=1;outlineConnect=0;whiteSpace=wrap;fillColor=#99ffff;shape=mxgraph.archimate3.application;appType=passive;archiType=square;" vertex="1" parent="1">
          <mxGeometry x="680" y="590" width="150" height="75" as="geometry" />
        </mxCell>
        <mxCell id="gvjPd4QQf7CFdnUI1ZTZ-11" value="Client Browser" style="html=1;outlineConnect=0;whiteSpace=wrap;fillColor=#AFFFAF;shape=mxgraph.archimate3.application;appType=device;" vertex="1" parent="1">
          <mxGeometry x="485" y="60" width="150" height="75" as="geometry" />
        </mxCell>
        <mxCell id="gvjPd4QQf7CFdnUI1ZTZ-29" value="" style="edgeStyle=elbowEdgeStyle;html=1;endArrow=block;dashed=0;elbow=horizontal;endFill=1;rounded=0;entryX=0.5;entryY=0;entryDx=0;entryDy=0;entryPerimeter=0;" edge="1" parent="1" source="gvjPd4QQf7CFdnUI1ZTZ-11" target="gvjPd4QQf7CFdnUI1ZTZ-5">
          <mxGeometry width="160" relative="1" as="geometry">
            <mxPoint x="555" y="160" as="sourcePoint" />
            <mxPoint x="715" y="160" as="targetPoint" />
          </mxGeometry>
        </mxCell>
        <mxCell id="gvjPd4QQf7CFdnUI1ZTZ-30" value="HTTPS" style="edgeLabel;html=1;align=center;verticalAlign=middle;resizable=0;points=[];" vertex="1" connectable="0" parent="gvjPd4QQf7CFdnUI1ZTZ-29">
          <mxGeometry x="-0.3015" y="-1" relative="1" as="geometry">
            <mxPoint y="5" as="offset" />
          </mxGeometry>
        </mxCell>
        <mxCell id="gvjPd4QQf7CFdnUI1ZTZ-31" value="" style="edgeStyle=elbowEdgeStyle;html=1;endArrow=block;dashed=0;elbow=vertical;endFill=1;rounded=0;exitX=0.5;exitY=1;exitDx=0;exitDy=0;exitPerimeter=0;entryX=0.5;entryY=0;entryDx=0;entryDy=0;entryPerimeter=0;" edge="1" parent="1" source="gvjPd4QQf7CFdnUI1ZTZ-5" target="gvjPd4QQf7CFdnUI1ZTZ-3">
          <mxGeometry width="160" relative="1" as="geometry">
            <mxPoint x="600" y="280" as="sourcePoint" />
            <mxPoint x="760" y="280" as="targetPoint" />
          </mxGeometry>
        </mxCell>
        <mxCell id="gvjPd4QQf7CFdnUI1ZTZ-32" value="" style="edgeStyle=elbowEdgeStyle;html=1;endArrow=block;dashed=0;elbow=vertical;endFill=1;rounded=0;exitX=0.5;exitY=1;exitDx=0;exitDy=0;exitPerimeter=0;entryX=0.5;entryY=0;entryDx=0;entryDy=0;entryPerimeter=0;" edge="1" parent="1" source="gvjPd4QQf7CFdnUI1ZTZ-5" target="gvjPd4QQf7CFdnUI1ZTZ-4">
          <mxGeometry width="160" relative="1" as="geometry">
            <mxPoint x="650" y="290" as="sourcePoint" />
            <mxPoint x="810" y="290" as="targetPoint" />
          </mxGeometry>
        </mxCell>
        <mxCell id="gvjPd4QQf7CFdnUI1ZTZ-33" value="HTTP" style="edgeLabel;html=1;align=center;verticalAlign=middle;resizable=0;points=[];" vertex="1" connectable="0" parent="gvjPd4QQf7CFdnUI1ZTZ-32">
          <mxGeometry x="-0.8739" relative="1" as="geometry">
            <mxPoint y="19" as="offset" />
          </mxGeometry>
        </mxCell>
        <mxCell id="gvjPd4QQf7CFdnUI1ZTZ-1" value="React Frontend" style="html=1;outlineConnect=0;whiteSpace=wrap;fillColor=#99ffff;shape=mxgraph.archimate3.application;appType=comp;archiType=square;" vertex="1" parent="1">
          <mxGeometry x="380" y="450" width="150" height="75" as="geometry" />
        </mxCell>
        <mxCell id="gvjPd4QQf7CFdnUI1ZTZ-3" value="Web UI" style="html=1;outlineConnect=0;whiteSpace=wrap;fillColor=#99ffff;shape=mxgraph.archimate3.application;appType=interface;archiType=square;" vertex="1" parent="1">
          <mxGeometry x="380" y="320" width="150" height="75" as="geometry" />
        </mxCell>
        <mxCell id="gvjPd4QQf7CFdnUI1ZTZ-2" value="FastAPI Backend" style="html=1;outlineConnect=0;whiteSpace=wrap;fillColor=#99ffff;shape=mxgraph.archimate3.application;appType=comp;archiType=square;" vertex="1" parent="1">
          <mxGeometry x="605" y="450" width="150" height="75" as="geometry" />
        </mxCell>
        <mxCell id="gvjPd4QQf7CFdnUI1ZTZ-4" value="REST API" style="html=1;outlineConnect=0;whiteSpace=wrap;fillColor=#99ffff;shape=mxgraph.archimate3.application;appType=interface;archiType=square;" vertex="1" parent="1">
          <mxGeometry x="605" y="320" width="150" height="75" as="geometry" />
        </mxCell>
        <mxCell id="gvjPd4QQf7CFdnUI1ZTZ-34" value="" style="edgeStyle=elbowEdgeStyle;html=1;endArrow=block;elbow=horizontal;endFill=0;dashed=1;rounded=0;exitX=0.5;exitY=1;exitDx=0;exitDy=0;exitPerimeter=0;entryX=0.5;entryY=0;entryDx=0;entryDy=0;entryPerimeter=0;" edge="1" parent="1" source="gvjPd4QQf7CFdnUI1ZTZ-3" target="gvjPd4QQf7CFdnUI1ZTZ-1">
          <mxGeometry width="160" relative="1" as="geometry">
            <mxPoint x="510" y="420" as="sourcePoint" />
            <mxPoint x="670" y="420" as="targetPoint" />
          </mxGeometry>
        </mxCell>
        <mxCell id="gvjPd4QQf7CFdnUI1ZTZ-40" value="realizes" style="edgeLabel;html=1;align=center;verticalAlign=middle;resizable=0;points=[];" vertex="1" connectable="0" parent="gvjPd4QQf7CFdnUI1ZTZ-34">
          <mxGeometry x="-0.4491" y="-2" relative="1" as="geometry">
            <mxPoint y="11" as="offset" />
          </mxGeometry>
        </mxCell>
        <mxCell id="gvjPd4QQf7CFdnUI1ZTZ-35" value="" style="edgeStyle=elbowEdgeStyle;html=1;endArrow=block;elbow=vertical;endFill=0;dashed=1;rounded=0;exitX=0.5;exitY=1;exitDx=0;exitDy=0;exitPerimeter=0;entryX=0.5;entryY=0;entryDx=0;entryDy=0;entryPerimeter=0;" edge="1" parent="1" source="gvjPd4QQf7CFdnUI1ZTZ-4" target="gvjPd4QQf7CFdnUI1ZTZ-2">
          <mxGeometry width="160" relative="1" as="geometry">
            <mxPoint x="830" y="430" as="sourcePoint" />
            <mxPoint x="990" y="430" as="targetPoint" />
          </mxGeometry>
        </mxCell>
        <mxCell id="gvjPd4QQf7CFdnUI1ZTZ-41" value="realizes" style="edgeLabel;html=1;align=center;verticalAlign=middle;resizable=0;points=[];" vertex="1" connectable="0" parent="gvjPd4QQf7CFdnUI1ZTZ-35">
          <mxGeometry x="-0.5758" y="1" relative="1" as="geometry">
            <mxPoint y="13" as="offset" />
          </mxGeometry>
        </mxCell>
        <mxCell id="gvjPd4QQf7CFdnUI1ZTZ-38" value="" style="edgeStyle=orthogonalEdgeStyle;html=1;endArrow=block;dashed=0;elbow=vertical;endFill=1;rounded=0;exitX=1;exitY=0.5;exitDx=0;exitDy=0;exitPerimeter=0;entryX=0;entryY=0.5;entryDx=0;entryDy=0;entryPerimeter=0;" edge="1" parent="1" source="gvjPd4QQf7CFdnUI1ZTZ-1" target="gvjPd4QQf7CFdnUI1ZTZ-4">
          <mxGeometry width="160" relative="1" as="geometry">
            <mxPoint x="520" y="430" as="sourcePoint" />
            <mxPoint x="680" y="430" as="targetPoint" />
          </mxGeometry>
        </mxCell>
        <mxCell id="gvjPd4QQf7CFdnUI1ZTZ-39" value="calls" style="edgeLabel;html=1;align=center;verticalAlign=middle;resizable=0;points=[];" vertex="1" connectable="0" parent="gvjPd4QQf7CFdnUI1ZTZ-38">
          <mxGeometry x="-0.0163" relative="1" as="geometry">
            <mxPoint as="offset" />
          </mxGeometry>
        </mxCell>
        <mxCell id="gvjPd4QQf7CFdnUI1ZTZ-42" value="" style="edgeStyle=elbowEdgeStyle;html=1;endArrow=block;elbow=vertical;endFill=0;dashed=1;rounded=0;exitX=0.5;exitY=1;exitDx=0;exitDy=0;exitPerimeter=0;entryX=0.5;entryY=0;entryDx=0;entryDy=0;entryPerimeter=0;" edge="1" parent="1" source="gvjPd4QQf7CFdnUI1ZTZ-2" target="gvjPd4QQf7CFdnUI1ZTZ-8">
          <mxGeometry width="160" relative="1" as="geometry">
            <mxPoint x="770" y="560" as="sourcePoint" />
            <mxPoint x="930" y="560" as="targetPoint" />
          </mxGeometry>
        </mxCell>
        <mxCell id="gvjPd4QQf7CFdnUI1ZTZ-43" value="" style="edgeStyle=elbowEdgeStyle;html=1;endArrow=block;elbow=vertical;endFill=0;dashed=1;rounded=0;exitX=0.5;exitY=1;exitDx=0;exitDy=0;exitPerimeter=0;entryX=0.5;entryY=0;entryDx=0;entryDy=0;entryPerimeter=0;" edge="1" parent="1" source="gvjPd4QQf7CFdnUI1ZTZ-2" target="gvjPd4QQf7CFdnUI1ZTZ-9">
          <mxGeometry width="160" relative="1" as="geometry">
            <mxPoint x="850" y="530" as="sourcePoint" />
            <mxPoint x="1010" y="530" as="targetPoint" />
          </mxGeometry>
        </mxCell>
        <mxCell id="gvjPd4QQf7CFdnUI1ZTZ-44" value="" style="edgeStyle=elbowEdgeStyle;html=1;endArrow=block;elbow=vertical;endFill=0;dashed=1;rounded=0;exitX=0.5;exitY=1;exitDx=0;exitDy=0;exitPerimeter=0;entryX=0.5;entryY=0;entryDx=0;entryDy=0;entryPerimeter=0;" edge="1" parent="1" source="gvjPd4QQf7CFdnUI1ZTZ-2" target="gvjPd4QQf7CFdnUI1ZTZ-10">
          <mxGeometry width="160" relative="1" as="geometry">
            <mxPoint x="900" y="550" as="sourcePoint" />
            <mxPoint x="1060" y="550" as="targetPoint" />
          </mxGeometry>
        </mxCell>
        <mxCell id="gvjPd4QQf7CFdnUI1ZTZ-45" value="read/write" style="edgeLabel;html=1;align=center;verticalAlign=middle;resizable=0;points=[];" vertex="1" connectable="0" parent="gvjPd4QQf7CFdnUI1ZTZ-44">
          <mxGeometry x="-0.7976" relative="1" as="geometry">
            <mxPoint y="7" as="offset" />
          </mxGeometry>
        </mxCell>
      </root>
    </mxGraphModel>
  </diagram>
  <diagram id="R8cJSQNtdSW0rR9bd-mE" name="05 - Solutions Overview">
    <mxGraphModel dx="2353" dy="985" grid="1" gridSize="10" guides="1" tooltips="1" connect="1" arrows="1" fold="1" page="1" pageScale="1" pageWidth="1169" pageHeight="827" math="0" shadow="0">
      <root>
        <mxCell id="0" />
        <mxCell id="1" parent="0" />
        <mxCell id="IYWtJ3fKswlKpxjJPlCH-7" value="Solution: Frontend" style="swimlane;fontStyle=0;childLayout=stackLayout;horizontal=1;startSize=30;horizontalStack=0;resizeParent=1;resizeParentMax=0;resizeLast=0;collapsible=1;marginBottom=0;whiteSpace=wrap;html=1;" vertex="1" parent="1">
          <mxGeometry x="515" y="190" width="140" height="90" as="geometry" />
        </mxCell>
        <mxCell id="IYWtJ3fKswlKpxjJPlCH-8" value="React Frontend" style="text;strokeColor=none;fillColor=none;align=left;verticalAlign=middle;spacingLeft=4;spacingRight=4;overflow=hidden;points=[[0,0.5],[1,0.5]];portConstraint=eastwest;rotatable=0;whiteSpace=wrap;html=1;" vertex="1" parent="IYWtJ3fKswlKpxjJPlCH-7">
          <mxGeometry y="30" width="140" height="30" as="geometry" />
        </mxCell>
        <mxCell id="IYWtJ3fKswlKpxjJPlCH-9" value="Web UI" style="text;strokeColor=none;fillColor=none;align=left;verticalAlign=middle;spacingLeft=4;spacingRight=4;overflow=hidden;points=[[0,0.5],[1,0.5]];portConstraint=eastwest;rotatable=0;whiteSpace=wrap;html=1;" vertex="1" parent="IYWtJ3fKswlKpxjJPlCH-7">
          <mxGeometry y="60" width="140" height="30" as="geometry" />
        </mxCell>
        <mxCell id="IYWtJ3fKswlKpxjJPlCH-11" value="Solution: Backend" style="swimlane;fontStyle=0;childLayout=stackLayout;horizontal=1;startSize=30;horizontalStack=0;resizeParent=1;resizeParentMax=0;resizeLast=0;collapsible=1;marginBottom=0;whiteSpace=wrap;html=1;" vertex="1" parent="1">
          <mxGeometry x="515" y="320" width="140" height="120" as="geometry" />
        </mxCell>
        <mxCell id="IYWtJ3fKswlKpxjJPlCH-12" value="FastAPI Backend" style="text;strokeColor=none;fillColor=none;align=left;verticalAlign=middle;spacingLeft=4;spacingRight=4;overflow=hidden;points=[[0,0.5],[1,0.5]];portConstraint=eastwest;rotatable=0;whiteSpace=wrap;html=1;" vertex="1" parent="IYWtJ3fKswlKpxjJPlCH-11">
          <mxGeometry y="30" width="140" height="30" as="geometry" />
        </mxCell>
        <mxCell id="IYWtJ3fKswlKpxjJPlCH-13" value="REST API" style="text;strokeColor=none;fillColor=none;align=left;verticalAlign=middle;spacingLeft=4;spacingRight=4;overflow=hidden;points=[[0,0.5],[1,0.5]];portConstraint=eastwest;rotatable=0;whiteSpace=wrap;html=1;" vertex="1" parent="IYWtJ3fKswlKpxjJPlCH-11">
          <mxGeometry y="60" width="140" height="30" as="geometry" />
        </mxCell>
        <mxCell id="IYWtJ3fKswlKpxjJPlCH-14" value="Contact Message Logic" style="text;strokeColor=none;fillColor=none;align=left;verticalAlign=middle;spacingLeft=4;spacingRight=4;overflow=hidden;points=[[0,0.5],[1,0.5]];portConstraint=eastwest;rotatable=0;whiteSpace=wrap;html=1;" vertex="1" parent="IYWtJ3fKswlKpxjJPlCH-11">
          <mxGeometry y="90" width="140" height="30" as="geometry" />
        </mxCell>
        <mxCell id="IYWtJ3fKswlKpxjJPlCH-15" value="Solution: DevOps &amp;amp; Infrastructure" style="swimlane;fontStyle=0;childLayout=stackLayout;horizontal=1;startSize=30;horizontalStack=0;resizeParent=1;resizeParentMax=0;resizeLast=0;collapsible=1;marginBottom=0;whiteSpace=wrap;html=1;" vertex="1" parent="1">
          <mxGeometry x="515" y="480" width="140" height="120" as="geometry" />
        </mxCell>
        <mxCell id="IYWtJ3fKswlKpxjJPlCH-16" value="Traefik Proxy" style="text;strokeColor=none;fillColor=none;align=left;verticalAlign=middle;spacingLeft=4;spacingRight=4;overflow=hidden;points=[[0,0.5],[1,0.5]];portConstraint=eastwest;rotatable=0;whiteSpace=wrap;html=1;" vertex="1" parent="IYWtJ3fKswlKpxjJPlCH-15">
          <mxGeometry y="30" width="140" height="30" as="geometry" />
        </mxCell>
        <mxCell id="IYWtJ3fKswlKpxjJPlCH-17" value="Docker Compose" style="text;strokeColor=none;fillColor=none;align=left;verticalAlign=middle;spacingLeft=4;spacingRight=4;overflow=hidden;points=[[0,0.5],[1,0.5]];portConstraint=eastwest;rotatable=0;whiteSpace=wrap;html=1;" vertex="1" parent="IYWtJ3fKswlKpxjJPlCH-15">
          <mxGeometry y="60" width="140" height="30" as="geometry" />
        </mxCell>
        <mxCell id="IYWtJ3fKswlKpxjJPlCH-18" value="GitHub Actions" style="text;strokeColor=none;fillColor=none;align=left;verticalAlign=middle;spacingLeft=4;spacingRight=4;overflow=hidden;points=[[0,0.5],[1,0.5]];portConstraint=eastwest;rotatable=0;whiteSpace=wrap;html=1;" vertex="1" parent="IYWtJ3fKswlKpxjJPlCH-15">
          <mxGeometry y="90" width="140" height="30" as="geometry" />
        </mxCell>
        <mxCell id="IYWtJ3fKswlKpxjJPlCH-19" value="" style="edgeStyle=elbowEdgeStyle;html=1;endArrow=block;elbow=vertical;endFill=0;dashed=1;rounded=0;entryX=0.5;entryY=0;entryDx=0;entryDy=0;" edge="1" parent="1" source="IYWtJ3fKswlKpxjJPlCH-7" target="IYWtJ3fKswlKpxjJPlCH-11">
          <mxGeometry width="160" relative="1" as="geometry">
            <mxPoint x="840" y="300" as="sourcePoint" />
            <mxPoint x="1000" y="300" as="targetPoint" />
          </mxGeometry>
        </mxCell>
        <mxCell id="IYWtJ3fKswlKpxjJPlCH-20" value="" style="edgeStyle=elbowEdgeStyle;html=1;endArrow=block;elbow=vertical;endFill=0;dashed=1;rounded=0;entryX=0.5;entryY=0;entryDx=0;entryDy=0;" edge="1" parent="1" source="IYWtJ3fKswlKpxjJPlCH-11" target="IYWtJ3fKswlKpxjJPlCH-15">
          <mxGeometry width="160" relative="1" as="geometry">
            <mxPoint x="880" y="400" as="sourcePoint" />
            <mxPoint x="1040" y="400" as="targetPoint" />
          </mxGeometry>
        </mxCell>
      </root>
    </mxGraphModel>
  </diagram>
  <diagram id="ED_U0ns_QoX4F7vDYlIB" name="06 - Migration Planning">
    <mxGraphModel dx="2687" dy="1182" grid="1" gridSize="10" guides="1" tooltips="1" connect="1" arrows="1" fold="1" page="1" pageScale="1" pageWidth="1169" pageHeight="827" math="0" shadow="0">
      <root>
        <mxCell id="0" />
        <mxCell id="1" parent="0" />
        <mxCell id="1dIMQGoPIG-B5MOEzxev-9" value="" style="swimlane;startSize=0;" vertex="1" parent="1">
          <mxGeometry x="420" y="289" width="280" height="250" as="geometry" />
        </mxCell>
        <mxCell id="1dIMQGoPIG-B5MOEzxev-10" value="Phase 2" style="text;html=1;align=center;verticalAlign=middle;resizable=0;points=[];autosize=1;strokeColor=none;fillColor=none;" vertex="1" parent="1dIMQGoPIG-B5MOEzxev-9">
          <mxGeometry y="10" width="70" height="30" as="geometry" />
        </mxCell>
        <mxCell id="1dIMQGoPIG-B5MOEzxev-3" value="WP3 - Contact Integration" style="html=1;outlineConnect=0;whiteSpace=wrap;fillColor=#FFE0E0;shape=mxgraph.archimate3.application;appType=workPackage;archiType=rounded;" vertex="1" parent="1dIMQGoPIG-B5MOEzxev-9">
          <mxGeometry x="70" y="40" width="150" height="75" as="geometry" />
        </mxCell>
        <mxCell id="1dIMQGoPIG-B5MOEzxev-4" value="WP4 - Traefik Setup" style="html=1;outlineConnect=0;whiteSpace=wrap;fillColor=#FFE0E0;shape=mxgraph.archimate3.application;appType=workPackage;archiType=rounded;" vertex="1" parent="1dIMQGoPIG-B5MOEzxev-9">
          <mxGeometry x="70" y="160" width="150" height="75" as="geometry" />
        </mxCell>
        <mxCell id="1dIMQGoPIG-B5MOEzxev-11" value="" style="swimlane;startSize=0;" vertex="1" parent="1">
          <mxGeometry x="750" y="289" width="280" height="250" as="geometry" />
        </mxCell>
        <mxCell id="1dIMQGoPIG-B5MOEzxev-12" value="Phase 3" style="text;html=1;align=center;verticalAlign=middle;resizable=0;points=[];autosize=1;strokeColor=none;fillColor=none;" vertex="1" parent="1dIMQGoPIG-B5MOEzxev-11">
          <mxGeometry y="10" width="70" height="30" as="geometry" />
        </mxCell>
        <mxCell id="1dIMQGoPIG-B5MOEzxev-6" value="WP6 - Github Actions" style="html=1;outlineConnect=0;whiteSpace=wrap;fillColor=#FFE0E0;shape=mxgraph.archimate3.application;appType=workPackage;archiType=rounded;" vertex="1" parent="1dIMQGoPIG-B5MOEzxev-11">
          <mxGeometry x="65" y="160" width="150" height="75" as="geometry" />
        </mxCell>
        <mxCell id="1dIMQGoPIG-B5MOEzxev-5" value="WP5 - Docker Setup" style="html=1;outlineConnect=0;whiteSpace=wrap;fillColor=#FFE0E0;shape=mxgraph.archimate3.application;appType=workPackage;archiType=rounded;" vertex="1" parent="1dIMQGoPIG-B5MOEzxev-11">
          <mxGeometry x="65" y="41" width="150" height="75" as="geometry" />
        </mxCell>
        <mxCell id="1dIMQGoPIG-B5MOEzxev-13" value="" style="group" vertex="1" connectable="0" parent="1">
          <mxGeometry x="90" y="289" width="280" height="250" as="geometry" />
        </mxCell>
        <mxCell id="1dIMQGoPIG-B5MOEzxev-1" value="WP1 - Static Frontend" style="html=1;outlineConnect=0;whiteSpace=wrap;fillColor=#FFE0E0;shape=mxgraph.archimate3.application;appType=workPackage;archiType=rounded;" vertex="1" parent="1dIMQGoPIG-B5MOEzxev-13">
          <mxGeometry x="65" y="40" width="150" height="75" as="geometry" />
        </mxCell>
        <mxCell id="1dIMQGoPIG-B5MOEzxev-2" value="WP2 - API Backend" style="html=1;outlineConnect=0;whiteSpace=wrap;fillColor=#FFE0E0;shape=mxgraph.archimate3.application;appType=workPackage;archiType=rounded;" vertex="1" parent="1dIMQGoPIG-B5MOEzxev-13">
          <mxGeometry x="65" y="150" width="150" height="75" as="geometry" />
        </mxCell>
        <mxCell id="1dIMQGoPIG-B5MOEzxev-7" value="" style="swimlane;startSize=0;" vertex="1" parent="1dIMQGoPIG-B5MOEzxev-13">
          <mxGeometry width="280" height="250" as="geometry" />
        </mxCell>
        <mxCell id="1dIMQGoPIG-B5MOEzxev-8" value="Phase 1" style="text;html=1;align=center;verticalAlign=middle;resizable=0;points=[];autosize=1;strokeColor=none;fillColor=none;" vertex="1" parent="1dIMQGoPIG-B5MOEzxev-7">
          <mxGeometry y="10" width="70" height="30" as="geometry" />
        </mxCell>
      </root>
    </mxGraphModel>
  </diagram>
</mxfile>
